<svg width="223" height="108" viewBox="0 0 223 108" fill="none" xmlns="http://www.w3.org/2000/svg">
<path d="M56.285 98.7277C56.267 99.0183 56.5195 99.212 56.6998 99.0183C72.5856 82.6244 85.5502 60.7337 89.1025 34.0241C90.581 22.7881 88.3091 5.30459 77.436 4.94135C76.5345 4.91714 75.7771 3.97273 75.687 2.76196C75.6149 1.52698 76.2279 0.413067 77.1115 0.170913C79.0949 -0.386042 82.6472 0.4615 84.3602 2.08393C99.7591 16.4437 91.8613 49.6188 83.3504 66.836C75.3624 82.9392 65.8418 96.3061 54.7704 106.912C54.3917 107.276 53.959 107.373 53.4902 107.155C52.4624 106.719 51.9935 105.823 52.0837 104.467C53.3098 87.4433 53.5442 72.3329 51.1641 55.7211C47.3775 29.3263 34.0161 14.6033 13.1536 25.5002C6.86057 28.7693 1.99205 40.7317 4.20993 49.8125C7.47364 63.2279 18.509 63.2763 26.1724 56.6413C26.8756 56.0359 27.8313 56.4718 28.1017 57.5373L28.1558 57.731C28.4443 58.8933 28.1198 60.1525 27.3624 60.8063C18.6171 68.3131 5.83277 67.3203 1.48717 53.687C-4.24687 35.6465 7.5638 20.1486 20.4564 17.5092C40.6156 13.3683 51.669 32.3048 55.1851 57.2709C56.7899 68.5795 57.1506 82.3823 56.285 98.7277Z" fill="#F9FDFC"/>
<path d="M198.644 72.5993C197.021 57.7068 197.724 43.5408 200.772 30.0528C200.97 29.2295 201.277 28.4546 201.673 27.7765C203.116 25.4034 204.108 23.9747 204.631 23.5146C206.506 21.8438 209.156 22.8366 210.509 25.7182C210.996 26.7595 211.645 28.9389 212.456 32.2564C212.709 33.2492 212.817 34.2905 212.781 35.3317C212.258 51.774 209.409 68.1194 204.234 84.4164C204.017 85.1187 203.963 85.8693 204.09 86.62C204.811 90.8819 205.821 97.2506 208.76 99.1394C213.34 102.118 218.479 89.09 219.723 84.8765C220.048 83.7384 221.021 83.1814 221.869 83.6415L221.959 83.6899C222.86 84.1985 223.257 85.6272 222.824 86.8137C220.011 94.4416 217.541 99.2847 215.431 101.343C210.256 106.428 204.937 104.273 202.665 96.3304C202.196 94.6595 201.944 93.812 201.89 93.7393C201.565 93.255 200.97 93.4488 200.844 94.0784C199.437 101.173 190.494 109.116 186.851 99.6963C186.419 98.5824 186.148 97.9044 186.022 97.638C185.733 97.0084 185.066 96.9116 184.706 97.4685C178.142 107.324 168.297 108.947 164.06 95.2649C163.879 94.6837 163.302 94.5385 162.996 95.0228C157.839 103.111 152.447 108.39 144.225 105.072C141.917 104.128 140.186 102.481 139.032 100.108C138.581 99.1878 138.707 97.9286 139.338 97.2022C139.969 96.4757 140.889 96.4999 141.52 97.2264C142.458 98.3403 143.558 98.9941 144.82 99.212C145.487 99.3089 146.154 98.9941 146.623 98.3403C150.247 93.3277 147.218 87.9761 145.253 83.3267C145 82.7455 144.387 82.794 144.189 83.3994C142.079 89.9375 135.678 105.508 128.321 104.443C119.377 103.183 120.477 90.8819 121.92 81.4621C122.136 79.9608 121.307 78.5805 120.189 78.5805H118.836C117.755 78.5805 116.835 79.5975 116.6 81.002C115.248 89.3806 109.532 102.675 102.842 104.636C90.6351 108.269 84.901 87.3949 91.8071 76.6917C93.6824 73.7616 96.5674 72.8172 98.7132 74.3912C104.952 78.9679 104.087 86.0631 96.1347 95.6281C94.8184 97.2021 95.6659 100.132 97.433 100.132H100.661C102.86 100.132 104.952 98.8972 106.431 96.742C109.496 92.2864 111.75 86.9106 113.174 80.6388C113.355 79.8397 112.994 79.0164 112.399 78.8227C112.183 78.75 111.786 78.7016 111.209 78.6531C109.586 78.4836 108.432 76.5948 108.775 74.6818C109.658 69.7176 111.101 66.5454 113.102 65.1894C113.571 64.8746 114.148 64.9472 114.563 65.3831C116.222 67.1508 117.087 69.645 117.141 72.8656C117.159 73.5921 117.61 74.1733 118.151 74.1249C132.035 72.9625 120.026 92.4317 126.283 98.8246C127.924 100.52 130.323 100.374 132.054 98.4613C136.417 93.6909 139.699 86.959 141.899 78.3141C142.728 75.0208 141.574 70.4199 142.692 67.732C143.486 65.2862 146.208 66.0127 146.262 68.6764L146.371 74.5123C146.371 74.9482 146.443 75.3841 146.605 75.7715C148.246 79.8639 149.815 84.368 151.275 89.2837C152.573 93.6425 152.069 97.4201 149.779 100.641C149.4 101.173 149.724 102.069 150.283 101.997C157.478 100.931 162.653 88.9447 164.222 80.2514C164.51 78.7016 165.736 76.9096 167.882 74.8997C171.362 71.6549 176.213 75.4325 176.646 80.1545C177.349 87.9276 173.67 92.6739 169.235 96.5483C168.73 96.9842 168.766 98.0013 169.307 98.3645C184.652 108.922 183.407 75.0693 197.815 73.9554C198.337 73.9069 198.716 73.3015 198.644 72.5993ZM202.899 75.2145C203.585 75.3114 204.991 68.8217 207.119 55.7696C208.363 48.0206 208.778 40.1991 208.345 32.2806C208.183 29.3263 207.678 27.8008 206.812 27.6797C205.929 27.5344 205.19 28.8904 204.54 31.7236C202.845 39.3031 201.98 47.0762 201.944 54.9947C201.89 68.3616 202.196 75.1177 202.899 75.2145ZM113.887 71.7716C113.571 71.2916 112.868 71.4369 112.343 72.0745C111.804 72.7204 111.642 73.6163 111.957 74.105C112.273 74.5849 112.976 74.4397 113.501 73.8021C114.04 73.1562 114.202 72.2603 113.887 71.7716ZM93.0333 92.5528C93.3759 92.7465 94.2414 92.0443 95.6478 90.446C97.3608 88.4846 98.3886 86.0146 98.7132 83.0846C98.9656 80.7841 98.5329 79.307 97.4149 78.6774C96.1888 77.9993 95.0708 78.6047 94.025 80.4693C92.7087 82.8424 92.1317 85.5545 92.312 88.5815C92.4562 91.0514 92.6907 92.3591 93.0333 92.5528ZM167.251 92.1896C167.594 92.3833 168.459 91.7053 169.83 90.1555C171.543 88.2425 172.552 85.8451 172.895 82.9635C173.147 80.7115 172.733 79.2827 171.633 78.6531C170.443 77.9751 169.343 78.5321 168.315 80.3482C166.999 82.6971 166.422 85.3366 166.584 88.2909C166.71 90.7124 166.927 92.02 167.251 92.1896ZM197.851 78.4836C191.125 81.0989 188.294 86.9106 189.394 95.943C189.791 99.091 192.603 100.399 194.353 98.2434C198.518 93.134 200.195 86.959 199.365 79.7671C199.257 78.8227 198.554 78.2173 197.851 78.4836Z" fill="#F9FDFC"/>
</svg>
