<svg width="504" height="352" viewBox="0 0 504 352" fill="none" xmlns="http://www.w3.org/2000/svg">
<path d="M127.209 203.401C127.169 204 127.739 204.399 128.147 204C164.05 170.225 193.351 125.125 201.38 70.0972C204.721 46.9486 199.586 10.9286 175.012 10.1803C172.975 10.1304 171.263 8.18472 171.059 5.69026C170.896 3.14591 172.282 0.851011 174.279 0.352119C178.762 -0.795332 186.79 0.950794 190.662 4.29337C225.465 33.8777 207.615 102.226 188.379 137.697C170.326 170.873 148.808 198.412 123.786 220.264C122.93 221.012 121.952 221.212 120.893 220.763C118.57 219.865 117.51 218.019 117.714 215.225C120.485 180.153 121.015 149.022 115.635 114.798C107.077 60.4187 76.8794 30.0861 29.7283 52.5362C15.5055 59.2712 4.50222 83.9165 9.51483 102.625C16.8911 130.264 41.8319 130.363 59.1519 116.694C60.7412 115.446 62.9011 116.344 63.5124 118.54L63.6347 118.939C64.2867 121.333 63.5532 123.928 61.8416 125.275C42.0764 140.74 13.1826 138.695 3.36113 110.607C-9.5983 73.4398 17.0949 41.5107 46.2332 36.0728C91.795 27.5417 116.777 66.5551 124.723 117.991C128.35 141.289 129.165 169.726 127.209 203.401Z" fill="#F9FDFC"/>
<path d="M448.953 149.571C445.286 118.889 446.875 89.7037 453.762 61.9155C454.211 60.2192 454.903 58.6228 455.8 57.2259C459.06 52.3368 461.302 49.3933 462.483 48.4454C466.722 45.003 472.712 47.0485 475.769 52.9853C476.869 55.1306 478.336 59.6206 480.17 66.4554C480.741 68.5008 480.985 70.6461 480.904 72.7913C479.722 106.666 473.283 140.341 461.587 173.917C461.098 175.363 460.976 176.91 461.261 178.457C462.891 187.237 465.173 200.358 471.816 204.249C482.167 210.386 493.782 183.545 496.594 174.865C497.327 172.52 499.528 171.372 501.443 172.32L501.647 172.42C503.685 173.468 504.581 176.411 503.603 178.856C497.246 194.571 491.663 204.549 486.894 208.789C475.198 219.266 463.176 214.826 458.041 198.462C456.982 195.02 456.411 193.274 456.289 193.124C455.555 192.126 454.211 192.525 453.925 193.822C450.747 208.44 430.533 224.804 422.301 205.397C421.323 203.102 420.712 201.705 420.426 201.156C419.774 199.859 418.267 199.66 417.451 200.807C402.617 221.112 380.366 224.454 370.789 196.267C370.382 195.07 369.078 194.77 368.385 195.768C356.73 212.431 344.545 223.307 325.961 216.472C320.745 214.527 316.833 211.134 314.224 206.245C313.206 204.349 313.491 201.755 314.917 200.258C316.343 198.762 318.422 198.811 319.848 200.308C321.967 202.603 324.453 203.95 327.306 204.399C328.814 204.599 330.322 203.95 331.381 202.603C339.573 192.276 332.726 181.25 328.284 171.672C327.714 170.474 326.328 170.574 325.88 171.821C321.112 185.291 306.644 217.37 290.017 215.175C269.804 212.581 272.29 187.237 275.55 167.83C276.039 164.737 274.164 161.893 271.638 161.893H268.581C266.136 161.893 264.057 163.989 263.528 166.882C260.471 184.144 247.553 211.533 232.433 215.574C204.844 223.058 191.884 180.053 207.492 158.002C211.731 151.965 218.251 150.02 223.101 153.263C237.201 162.692 235.245 177.309 217.273 197.015C214.298 200.258 216.214 206.295 220.207 206.295H227.502C232.474 206.295 237.201 203.75 240.543 199.31C247.471 190.131 252.565 179.055 255.785 166.134C256.192 164.488 255.377 162.791 254.032 162.392C253.543 162.243 252.647 162.143 251.343 162.043C247.675 161.694 245.067 157.802 245.841 153.861C247.838 143.634 251.098 137.098 255.622 134.305C256.681 133.656 257.985 133.806 258.923 134.704C262.672 138.346 264.628 143.484 264.75 150.12C264.791 151.616 265.81 152.814 267.032 152.714C298.412 150.319 271.271 190.43 285.412 203.601C289.121 207.093 294.541 206.794 298.453 202.852C308.315 193.024 315.732 179.155 320.704 161.345C322.579 154.56 319.971 145.081 322.497 139.543C324.29 134.504 330.444 136.001 330.566 141.489L330.811 153.512C330.811 154.41 330.974 155.308 331.341 156.106C335.049 164.538 338.595 173.817 341.896 183.944C344.83 192.924 343.689 200.707 338.513 207.342C337.657 208.44 338.391 210.286 339.654 210.136C355.915 207.941 367.611 183.246 371.156 165.336C371.808 162.143 374.579 158.451 379.429 154.31C387.294 147.625 398.257 155.408 399.235 165.136C400.824 181.151 392.511 190.929 382.485 198.911C381.344 199.809 381.426 201.905 382.648 202.653C417.329 224.405 414.517 154.659 447.079 152.365C448.261 152.265 449.116 151.018 448.953 149.571ZM458.571 154.959C460.12 155.158 463.298 141.788 468.107 114.898C470.919 98.9332 471.857 82.819 470.879 66.5053C470.512 60.4188 469.371 57.2758 467.415 57.0263C465.418 56.727 463.747 59.5208 462.28 65.3578C458.449 80.9731 456.493 96.9876 456.411 113.301C456.289 140.84 456.982 154.759 458.571 154.959ZM257.395 147.866C256.681 146.877 255.092 147.176 253.905 148.49C252.687 149.82 252.321 151.666 253.033 152.673C253.747 153.662 255.336 153.362 256.523 152.049C257.741 150.718 258.108 148.872 257.395 147.866ZM210.264 190.679C211.038 191.079 212.994 189.632 216.173 186.339C220.044 182.298 222.367 177.209 223.101 171.173C223.671 166.433 222.693 163.39 220.167 162.093C217.395 160.696 214.869 161.943 212.505 165.785C209.53 170.674 208.226 176.262 208.634 182.498C208.96 187.586 209.489 190.28 210.264 190.679ZM378.003 189.931C378.777 190.33 380.733 188.933 383.83 185.74C387.702 181.799 389.984 176.86 390.758 170.923C391.329 166.284 390.392 163.34 387.906 162.043C385.216 160.646 382.73 161.794 380.407 165.535C377.432 170.375 376.128 175.812 376.495 181.899C376.78 186.888 377.269 189.582 378.003 189.931ZM447.16 161.694C431.96 167.082 425.561 179.055 428.047 197.664C428.944 204.15 435.301 206.844 439.254 202.403C448.668 191.877 452.458 179.155 450.584 164.338C450.339 162.392 448.75 161.145 447.16 161.694Z" fill="#F9FDFC"/>
<path d="M143.743 312.783C143.259 321.512 143.297 328.178 143.929 332.702C144.3 335.559 145.304 337.86 146.643 338.733L156.978 345.558C157.722 346.034 158.168 347.7 158.02 349.367C157.871 350.954 157.164 352.145 156.384 351.986C140.471 349.129 130.284 331.432 117.048 315.798C115.264 313.656 113.442 318.338 114.706 321.75L119.539 334.527C120.655 337.463 119.39 341.828 117.643 340.876C113.07 338.336 111.062 331.353 111.62 319.925C111.732 317.385 111.174 314.925 110.207 313.576C109.538 312.624 108.534 312.465 107.159 313.1C104.853 314.132 104.147 306.91 106.266 303.894C107.084 302.704 108.423 300.641 110.319 297.546C111.397 295.721 112.103 293.022 112.215 290.086L113.553 255.406C113.628 253.978 114.148 252.788 114.817 252.629L117.011 251.994C118.126 251.677 119.093 253.899 118.833 256.279L116.379 280.642C116.082 283.579 117.68 285.563 118.758 283.737L137.274 251.756C137.98 250.566 139.058 250.804 139.616 252.311L140.285 254.137C140.843 255.565 140.731 257.708 140.062 258.898L117.457 297.943C116.49 299.609 116.639 302.783 117.68 304.053L136.418 327.147C137.162 328.099 138.092 327.226 138.277 325.401L142.925 279.214C143.036 278.262 143.408 277.547 143.854 277.468L144.932 277.151C146.122 276.833 147.2 278.5 147.349 280.96C148.836 302.228 149.952 311.672 158.131 326.036C159.246 327.94 160.882 325.956 160.696 322.941L157.945 280.008C157.796 277.706 158.577 275.563 159.655 275.246L161.403 274.77C162.593 274.373 163.671 276.357 163.671 278.976V321.353C163.671 331.114 158.652 337.146 154.748 332.067C152.257 328.892 149.32 322.068 145.936 311.672C145.304 309.688 143.891 310.481 143.743 312.783Z" fill="#F9FDFC"/>
<path d="M379.495 325.162C379.384 322.94 378.008 322.147 377.413 324.051C372.022 340.796 367.933 349.446 365.144 350.081C360.72 351.192 357.262 341.272 358.303 330.479C359.53 317.068 361.612 294.927 364.549 263.977C364.624 263.342 364.884 262.945 365.181 263.104L366.445 263.659C368.044 264.374 369.085 267.786 368.751 271.199L362.319 334.844C361.835 339.526 364.401 342.939 366.185 339.923C373.138 328.099 376.893 313.417 377.45 295.879C377.562 293.022 378.566 290.8 379.904 290.403L380.871 290.086C381.391 289.927 381.838 290.721 381.912 291.752L384.291 329.051C384.626 334.447 387.898 336.114 389.348 331.67C395.966 311.354 395.073 284.769 395.11 259.85C395.11 257.469 395.928 255.485 397.007 255.168L398.308 254.771C399.126 254.533 399.869 255.882 399.907 257.628C400.613 287.07 398.866 311.433 394.739 330.559C392.322 341.907 386.671 347.303 382.581 342.145C381.057 340.241 380.053 334.606 379.495 325.162Z" fill="#F9FDFC"/>
<path d="M218.398 286.277C220.294 289.372 220.703 295.641 219.588 305.164C219.179 308.577 220.332 311.91 221.968 312.148L222.414 312.227C224.235 312.465 225.871 309.926 226.243 306.196C227.544 293.737 227.173 282.864 225.053 273.58C224.496 271.04 225.239 268.024 226.541 267.707L227.916 267.31C228.809 267.072 229.664 268.183 229.924 270.088C232.675 289.848 231.225 306.91 225.574 321.433C223.789 325.956 220.666 326.035 219.848 321.591C219.737 320.957 218.807 319.131 217.134 316.036C216.279 314.449 215.015 314.449 214.123 315.957L208.732 325.321C204.382 332.86 198.024 324.528 199.214 312.862L203.675 268.659C203.861 266.675 205.088 266.04 205.683 267.628L206.984 271.04C207.579 272.548 207.802 274.532 207.579 276.516L203.75 314.687C203.415 318.02 205.014 320.719 206.427 319.211C212.524 312.783 215.573 302.863 215.573 289.292C215.573 286.198 217.246 284.452 218.398 286.277Z" fill="#F9FDFC"/>
<path d="M282.235 308.577C281.751 308.656 281.305 307.942 281.194 306.989C281.082 305.958 281.342 304.926 281.788 304.529C288.22 298.895 291.009 288.737 290.191 273.897C290.117 272.389 290.6 270.961 291.306 270.802L292.868 270.326C293.723 270.088 294.429 271.675 294.243 273.421L292.719 288.34C292.422 291.356 293.611 294.133 295.061 293.737L297.85 292.943C299.002 292.625 299.932 290.721 300.192 288.261L301.679 273.341C302.051 269.612 304.542 269.453 304.988 273.183L307.442 293.657C307.665 295.562 307.554 297.546 307.182 299.371C305.732 306.275 305.881 314.528 307.628 324.21C308.074 326.75 307.293 329.448 306.066 329.845L304.951 330.162C303.947 330.48 303.018 328.972 302.869 326.829L301.382 303.656C301.233 301.276 300.229 299.689 299.114 300.006L295.582 300.958C293.909 301.514 292.608 304.291 292.347 307.783C291.976 313.1 292.608 318.417 294.243 323.655C294.876 325.718 294.318 328.496 293.202 328.892C292.273 329.131 291.343 328.575 290.488 327.147C289.224 325.083 288.629 323.258 288.667 321.671C288.853 312.386 286.696 308.021 282.235 308.577Z" fill="#F9FDFC"/>
<path d="M172.279 324.237C168.616 316.592 170.251 300.324 175.958 287.818C181.665 275.326 189.25 271.358 192.911 278.95C196.574 286.595 194.938 302.863 189.232 315.369C183.524 327.861 175.94 331.829 172.279 324.237ZM189.471 288.827C187.502 284.531 182.855 287.388 179.044 295.307C175.233 303.181 173.746 313.1 175.718 317.375C177.687 321.671 182.335 318.814 186.146 310.896C189.956 303.022 191.443 293.102 189.471 288.827Z" fill="#F9FDFC"/>
<path d="M406.292 324.541C402.583 316.83 404.182 300.403 409.935 287.702C415.67 275.008 423.329 270.961 427.057 278.645C430.765 286.356 429.166 302.784 423.414 315.485C417.678 328.178 410.019 332.226 406.292 324.541ZM423.775 288.718C421.805 284.372 417.12 287.229 413.29 295.157C409.462 303.022 407.974 313.021 409.945 317.325C411.915 321.671 416.6 318.814 420.431 310.886C424.259 303.022 425.746 293.023 423.775 288.718Z" fill="#F9FDFC"/>
<path d="M444.484 327.543C444.93 329.607 444.521 331.988 443.555 332.94L443.332 333.178C442.551 334.051 441.621 333.495 441.175 331.908C438.982 324.29 438.238 314.767 438.982 303.419C439.428 296.752 438.164 293.419 435.152 293.419C433.442 293.419 432.736 288.817 434.111 286.674C437.197 281.833 442.142 278.421 448.909 276.437C452.738 275.326 458.538 270.723 462.851 277.151C465.751 281.516 465.528 291.197 462.367 296.435C458.464 302.863 455.564 308.815 453.63 314.211C452.738 316.671 453.705 320.243 455.155 319.846L474.599 314.211C475.083 314.053 475.454 313.259 475.566 312.227L477.425 293.896C477.797 290.404 476.681 286.912 475.008 286.436L473.484 285.96C471.811 285.483 471.476 280.643 473.001 279.135C477.648 274.373 483.113 272.31 489.471 273.024C490.661 273.104 491.776 273.897 492.817 275.167C507.466 293.419 492.594 318.655 484.08 328.178C482.667 329.766 480.92 328.972 479.916 326.353L479.098 324.21C478.392 322.306 477.313 321.354 476.198 321.592C468.242 323.099 461.512 325.163 455.973 327.782C453.444 328.972 450.991 326.988 448.611 321.75C447.087 318.338 447.235 312.942 448.946 310.005L459.876 291.197C461.326 288.658 460.323 283.579 458.464 284.134L446.009 287.785C444.856 288.102 443.889 289.928 443.592 292.388C441.993 305.799 442.291 317.465 444.484 327.543ZM493.635 287.467L486.645 280.405C485.418 279.135 483.931 280.246 483.336 282.865L483.002 284.293C479.507 300.006 479.247 315.402 482.407 318.576C485.567 321.83 490.995 311.751 494.49 296.038L494.825 294.61C495.42 291.912 494.862 288.737 493.635 287.467Z" fill="#F9FDFC"/>
<path d="M331.46 301.037C328.151 305.085 324.768 307.069 321.236 307.148C319.265 307.148 317.778 310.878 318.038 315.004L318.559 323.416C318.782 326.908 320.343 329.21 321.942 328.416C324.359 327.226 326.775 323.02 329.229 315.798C329.564 314.846 330.196 314.528 330.679 315.163L331.497 316.115C331.832 316.512 331.943 317.306 331.794 318.02C329.378 328.575 326.403 335.161 322.797 337.78C318.67 340.796 314.283 333.574 313.986 323.178C313.763 316.274 314.023 305.164 314.729 289.768C314.878 287.149 315.584 284.848 316.625 283.499C322.388 276.357 328.746 274.214 335.773 277.15C336.479 277.468 336.999 278.817 336.962 280.404C336.962 281.991 336.405 283.261 335.661 283.499L321.793 287.467C320.492 287.864 319.6 290.403 319.748 293.181L319.934 295.8C320.046 297.387 320.715 298.498 321.459 298.26L330.567 295.641C332.055 295.165 332.761 299.45 331.46 301.037Z" fill="#F9FDFC"/>
<path d="M286.548 277.23C287.254 277.072 287.812 278.342 287.663 279.849L287.217 284.373C287.031 286.119 286.324 287.468 285.469 287.706L268.999 292.547C267.884 292.864 267.066 294.769 266.991 297.07C266.731 305.244 267.735 312.148 269.966 317.783C271.304 321.195 270.263 326.433 268.181 326.592C264.091 326.988 262.381 318.418 263.088 300.879C263.273 296.753 261.6 293.34 259.667 293.896L255.875 295.007C255.168 295.245 254.499 294.134 254.388 292.626L254.239 290.007C254.127 288.182 254.722 286.436 255.577 286.198L286.548 277.23Z" fill="#F9FDFC"/>
</svg>
